<?xml version="1.0" encoding="UTF-8"?>
<svg id="Layer_1" data-name="Layer 1" xmlns="http://www.w3.org/2000/svg" xmlns:xlink="http://www.w3.org/1999/xlink"
     viewBox="0 0 72.01 16">
    <defs>
        <style>
            .cls-1 {
            fill: none;
            }

            .cls-2 {
            fill: url(#linear-gradient);
            }

            .cls-3 {
            clip-path: url(#clippath);
            }

            .cls-4 {
            fill: #fcfcfc;
            }

            .cls-5 {
            fill: #fff;
            }

            .cls-6 {
            fill: url(#linear-gradient-2);
            }
        </style>
        <clipPath id="clippath">
            <rect class="cls-1" x="0" width="72" height="16"/>
        </clipPath>
        <linearGradient id="linear-gradient" x1="56.55" y1="7.01" x2="71.99" y2="11.14"
                        gradientTransform="translate(0 18) scale(1 -1)" gradientUnits="userSpaceOnUse">
            <stop offset="0" stop-color="red"/>
            <stop offset="1" stop-color="#800031"/>
        </linearGradient>
        <linearGradient id="linear-gradient-2" x1="3461.91" y1="456.81" x2="3705.41" y2="488.81"
                        gradientTransform="translate(0 18) scale(1 -1)" gradientUnits="userSpaceOnUse">
            <stop offset="0" stop-color="red"/>
            <stop offset="1" stop-color="#800031"/>
        </linearGradient>
    </defs>
    <g class="cls-3">
        <g>
            <path class="cls-5"
                  d="m33.69,6.61h-5.23c-.32.01-.64-.03-.95-.14-.3-.11-.58-.27-.81-.49-.23-.21-.42-.47-.55-.75-.13-.28-.19-.59-.19-.9s.07-.61.19-.9c.13-.28.31-.54.55-.75.23-.21.51-.38.81-.49.3-.11.62-.16.95-.14h5.99c.33,0,.66.06.97.19.31.13.58.32.8.56l1.17-1.78c-.81-.66-1.84-1.02-2.9-1.02h-6.06c-1.2.01-2.34.48-3.18,1.29-.84.81-1.31,1.91-1.31,3.06,0,.58.13,1.16.37,1.69.24.53.58,1.02,1.02,1.43.43.41.95.73,1.51.94.56.22,1.17.33,1.78.32h4.86c.72,0,1.41.27,1.93.76.51.48.81,1.14.82,1.83-.02.7-.33,1.36-.85,1.85-.52.49-1.23.76-1.96.77h-5.72c-.42,0-.83-.1-1.21-.27-.38-.18-.71-.43-.96-.75v.03l-1.17,1.78c.9.82,2.1,1.28,3.35,1.26h5.7c1.3,0,2.55-.49,3.48-1.36.93-.87,1.46-2.06,1.47-3.31,0-2.75-2.55-4.72-4.66-4.72Z"/>
            <path class="cls-5" d="m42.08,5.42h2.26v-3.19h9.46V.07h-11.72v5.36Z"/>
            <path class="cls-4"
                  d="m8.66,8.72c2.81-.17,4.29-1.94,4.29-4.38,0-1.13-.46-2.21-1.29-3.01-.83-.8-1.96-1.25-3.14-1.26H0v5.35h2.26v-3.2h6.16c.62.02,1.2.26,1.63.69.43.43.66,1,.65,1.59,0,1.13-.75,1.96-2.21,2.04h-2.16c-2,.09-3.57.7-4.69,1.84-1.02,1.1-1.6,2.51-1.64,3.98h0v3.55h2.26v-3.36c0-.99.38-1.95,1.07-2.69.83-.74,1.93-1.15,3.06-1.15.13,1.82,1.37,6.95,7.29,7.2h.45v-2.17c-3.54,0-5.13-2.55-5.47-5.03Z"/>
            <path class="cls-5"
                  d="m44.35,12.55c0-.99.38-1.94,1.07-2.69.76-.77,1.95-1.16,3.53-1.16h1.34v-2.16h-1.37c-2.24,0-3.98.63-5.19,1.86-1.1,1.19-1.69,2.73-1.65,4.32v3.18h11.72v-2.16h-9.44v-1.19Z"/>
            <path class="cls-5" d="m20.2.07h-2.32v15.86h2.32V.07Z"/>
            <path class="cls-2"
                  d="m70.18,7.66c.52-.39.95-.88,1.24-1.45.29-.57.44-1.19.45-1.82,0-.61-.14-1.22-.41-1.78-.27-.56-.66-1.06-1.14-1.46-.47-.38-1.01-.68-1.6-.87-.36-.11-.72-.17-1.1-.19l-.46,2.04h.31c.62.07,1.2.33,1.65.73.31.32.52.71.59,1.14.08.43.02.87-.17,1.27-.19.4-.49.73-.87.96-.38.23-.83.35-1.29.34h-1.24l-.5,2.08h1.46c.36,0,.71.07,1.05.2s.63.32.89.57c.25.24.46.53.59.85.14.32.21.66.21,1s-.07.68-.21,1c-.14.32-.34.6-.59.85-.25.24-.56.44-.89.57s-.69.2-1.05.2h-2.63l-.45,2.04h3.08c1.28,0,2.51-.47,3.43-1.33s1.44-2.03,1.45-3.25c0-.7-.16-1.4-.47-2.03-.31-.64-.77-1.2-1.34-1.64Z"/>
            <path class="cls-6"
                  d="m59.8,4.38c0-.6.26-1.17.71-1.59.45-.42,1.05-.66,1.67-.66h2.84l.46-2.04h-3.33c-1.19,0-2.33.46-3.17,1.27-.84.8-1.32,1.89-1.32,3.03,0,.63.16,1.26.45,1.82s.72,1.06,1.24,1.45c-.55.42-.99.94-1.31,1.54-.32.6-.49,1.25-.52,1.92-.02.67.1,1.33.37,1.95.27.62.68,1.17,1.19,1.62.46.38.97.69,1.53.92.42.16.86.26,1.32.29l.45-2.01c-.2,0-.39-.02-.58-.07-.58-.19-1.1-.5-1.53-.91-.4-.45-.62-1.03-.62-1.62,0-.7.29-1.37.8-1.87.51-.5,1.21-.78,1.94-.79h1.15l.47-2.08h-1.84c-.31,0-.61-.04-.9-.15-.29-.11-.55-.27-.77-.47-.22-.2-.4-.45-.52-.71-.12-.27-.19-.56-.19-.85h0Z"/>
        </g>
    </g>
</svg>